<svg xmlns="http://www.w3.org/2000/svg" version="1.1" xmlns:xlink="http://www.w3.org/1999/xlink" xmlns:svgjs="http://svgjs.com/svgjs" width="18.926mm" height="18.926mm"><svg width="18.926mm" height="18.926mm" version="1.1" viewBox="0 0 18.926 18.926" xmlns="http://www.w3.org/2000/svg">
<g transform="translate(-44.943 -65.524)" stroke-width=".26458">
<path d="m60.542 66.972c-0.18185 0.0083-0.45226 0.30609-0.45226 0.30609l-13.392 13.392s-0.27356 0.29965-0.27629 0.48597c-0.0029 0.19744 0.12147 0.34156 0.27757 0.52332 0.15611 0.18176 0.31897 0.35753 0.48822 0.52691 0.16925 0.16938 0.3449 0.33237 0.52657 0.48857 0.18167 0.1562 0.33628 0.32507 0.54689 0.31731 0.1865-0.0069 0.46227-0.31588 0.46227-0.31588l13.393-13.393s0.31693-0.27552 0.32366-0.46398c0.0076-0.21145-0.16888-0.36351-0.32509-0.54518-0.1562-0.18167-0.31919-0.35731-0.48857-0.52657-0.16938-0.16925-0.34515-0.33212-0.52691-0.48822-0.18176-0.15611-0.34518-0.317-0.55704-0.30738z" fill="#3ab1c9"></path>
<path d="m46.967 65.524c-1.1212 0.0011-2.0236 0.90424-2.0236 2.0257 6.3e-5 1.9056 0 5.384 0 7.4378 0 0.06813 7.31e-4 0.13561 0.0022 0.20243 0.0014 0.06682 0.0035 0.13298 0.0063 0.19847s0.0062 0.13031 0.01022 0.19444c4e-3 0.06413 0.0087 0.12758 0.01389 0.19033 0.0052 0.06275 0.01101 0.1248 0.01733 0.18614 0.0063 0.06134 0.01318 0.12197 0.02053 0.18188 0.0074 0.05991 0.0152 0.11909 0.0235 0.17754 0.0083 0.05845 0.01705 0.11616 0.02622 0.17311 0.0092 0.05696 0.01875 0.11317 0.02871 0.16862 0.01 0.05545 0.02029 0.11013 0.03097 0.16404 0.01067 0.05391 0.02168 0.10704 0.03298 0.15939 0.0113 0.05235 0.0229 0.1039 0.03476 0.15466 0.01186 0.05075 0.02397 0.10071 0.0363 0.14984 0.01233 0.04914 0.02488 0.09746 0.0376 0.14496 0.01272 0.0475 0.02563 0.09417 0.03867 0.13999 0.01304 0.04583 0.02625 0.0908 0.03949 0.13495 0.21764 0.72578 0.42544 0.64189 0.83465 0.26896l0.40861-0.37037 10.651-10.651c0.66451-0.65216 0.47302-0.83189-0.10942-1.0325-0.14342-0.04387-0.28869-0.08305-0.4351-0.11952-0.1464-0.03647-0.29415-0.06954-0.44315-0.09911-0.149-0.02957-0.29927-0.05563-0.4507-0.0781-0.15143-0.02247-0.30404-0.04134-0.45774-0.05651-0.15369-0.01517-0.30847-0.02665-0.46426-0.03434-0.15578-0.0077-0.31256-0.01158-0.47026-0.01158-2.0538 0-5.5316-4.55e-4 -7.4373-5.17e-4z" fill="#f38629"></path>
<path d="m62.402 72.192-10.79 10.79c-0.66889 0.7285-0.73701 0.78323 0.07327 1.0687 0.28293 0.09969 0.58024 0.15961 0.87825 0.21881 0.29801 0.0592 0.60105 0.1044 0.90844 0.13479 0.30739 0.0304 0.61912 0.04599 0.93452 0.04599 2.0561 0 5.5443-4.54e-4 7.4455-5.16e-4 1.1155-0.0045 2.0125-0.90144 2.0169-2.0169 6.2e-5 -1.9012 5.16e-4 -5.3899 5.16e-4 -7.4461 0-0.63088-0.06223-1.247-0.18048-1.843-0.05913-0.29799-0.13226-0.59095-0.21862-0.8782-0.2834-0.77255-0.37493-0.7254-1.0687-0.07329z" fill="#2e94aa"></path>
<ellipse cx="63.047" cy="109.39" rx=".2532" ry=".3798" fill="#0f0"></ellipse>
</g>
</svg><style>@media (prefers-color-scheme: light) { :root { filter: none; } }
</style></svg>